# xmcd
#
# Track frame offsets: 
#        150
#        20791
#        38412
#        56798
#        75167
#        94517
#        115979
#        134769
#        153223
#
# Disc length: 2441 seconds
#
# Revision: 1
# Processed by: cddbd v1.5.2PL0 Copyright (c) Steve Scherf et al.
# Submitted via: ExactAudioCopy v0.99pb5
#
DISCID=68098709
DTITLE=Pain - You Only Live Twice - Disc 1
DYEAR=2011
DGENRE=Industrial
TTITLE0=Let Me Out
TTITLE1=Fear The Demons
TTITLE2=The Great Pretender
TTITLE3=You Only Live Twice
TTITLE4=Dirty Woman
TTITLE5=We Want More
TTITLE6=Leave Me Alone
TTITLE7=Monster
TTITLE8=Seasons Of The Reaper
EXTD=
EXTT0=
EXTT1=
EXTT2=
EXTT3=
EXTT4=
EXTT5=
EXTT6=
EXTT7=
EXTT8=
PLAYORDER=
